# This file uses centimeters as units for non-parametric coordinates.

mtllib Tornado2.mtl
g default
v 2.888269 5.000000 -0.574512
v 2.720692 5.000000 -1.126947
v 2.448558 5.000000 -1.636074
v 2.082328 5.000000 -2.082327
v 1.636075 5.000000 -2.448558
v 1.126948 5.000000 -2.720693
v 0.574514 5.000000 -2.888271
v 0.000001 5.000000 -2.944858
v -0.574512 5.000000 -2.888272
v -1.126947 5.000000 -2.720694
v -1.636074 5.000000 -2.448559
v -2.082328 5.000000 -2.082329
v -2.448558 5.000000 -1.636076
v -2.720693 5.000000 -1.126949
v -2.888272 5.000000 -0.574515
v -2.944858 5.000000 -0.000002
v -2.888273 5.000000 0.574512
v -2.720694 5.000000 1.126946
v -2.448559 5.000000 1.636073
v -2.082330 5.000000 2.082327
v -1.636076 5.000000 2.448559
v -1.126949 5.000000 2.720694
v -0.574515 5.000000 2.888272
v -0.000001 5.000000 2.944858
v 0.574512 5.000000 2.888272
v 1.126948 5.000000 2.720694
v 1.636075 5.000000 2.448559
v 2.082328 5.000000 2.082329
v 2.448559 5.000000 1.636075
v 2.720694 5.000000 1.126948
v 2.888273 5.000000 0.574513
v 2.944859 5.000000 -0.000001
v 1.511286 2.000000 -0.300613
v 1.540897 2.000000 -0.000000
v 1.511288 2.000000 0.300614
v 1.423603 2.000000 0.589675
v 1.281208 2.000000 0.856076
v 1.089578 2.000000 1.089578
v 0.856076 2.000000 1.281208
v 0.589675 2.000000 1.423603
v 0.300614 2.000000 1.511288
v -0.000000 2.000000 1.540896
v -0.300614 2.000000 1.511288
v -0.589676 2.000000 1.423602
v -0.856076 2.000000 1.281208
v -1.089578 2.000000 1.089577
v -1.281208 2.000000 0.856075
v -1.423602 2.000000 0.589675
v -1.511288 2.000000 0.300613
v -1.540896 2.000000 -0.000001
v -1.511287 2.000000 -0.300615
v -1.423602 2.000000 -0.589676
v -1.281208 2.000000 -0.856076
v -1.089577 2.000000 -1.089578
v -0.856075 2.000000 -1.281208
v -0.589675 2.000000 -1.423602
v -0.300613 2.000000 -1.511287
v 0.000001 2.000000 -1.540896
v 0.300614 2.000000 -1.511287
v 0.589675 2.000000 -1.423602
v 0.856076 2.000000 -1.281207
v 1.089577 2.000000 -1.089577
v 1.281208 2.000000 -0.856075
v 1.423601 2.000000 -0.589675
v 2.093021 2.999999 -0.416327
v 2.134029 2.999999 -0.000000
v 2.093023 2.999999 0.416328
v 1.971586 2.999999 0.816658
v 1.774380 2.999999 1.185603
v 1.508986 2.999999 1.508987
v 1.185602 2.999999 1.774380
v 0.816657 2.999999 1.971586
v 0.416328 2.999999 2.093023
v -0.000001 2.999999 2.134029
v -0.416329 2.999999 2.093023
v -0.816658 2.999999 1.971585
v -1.185603 2.999999 1.774379
v -1.508987 2.999999 1.508985
v -1.774380 2.999999 1.185601
v -1.971585 2.999999 0.816656
v -2.093024 2.999999 0.416327
v -2.134029 2.999999 -0.000001
v -2.093023 2.999999 -0.416329
v -1.971585 2.999999 -0.816658
v -1.774379 2.999999 -1.185603
v -1.508985 2.999999 -1.508986
v -1.185602 2.999999 -1.774379
v -0.816657 2.999999 -1.971585
v -0.416328 2.999999 -2.093023
v 0.000001 2.999999 -2.134028
v 0.416329 2.999999 -2.093022
v 0.816658 2.999999 -1.971585
v 1.185603 2.999999 -1.774379
v 1.508985 2.999999 -1.508985
v 1.774379 2.999999 -1.185602
v 1.971584 2.999999 -0.816656
v 2.316170 3.999999 -0.460714
v 2.361551 3.999999 -0.000000
v 2.316173 3.999999 0.460715
v 2.181788 3.999999 0.903726
v 1.963556 3.999999 1.312007
v 1.669868 3.999999 1.669868
v 1.312006 3.999999 1.963557
v 0.903726 3.999999 2.181788
v 0.460715 3.999999 2.316173
v -0.000001 3.999999 2.361550
v -0.460716 3.999999 2.316173
v -0.903727 3.999999 2.181787
v -1.312008 3.999999 1.963556
v -1.669868 3.999999 1.669867
v -1.963556 3.999999 1.312005
v -2.181788 3.999999 0.903724
v -2.316173 3.999999 0.460714
v -2.361550 3.999999 -0.000001
v -2.316172 3.999999 -0.460717
v -2.181787 3.999999 -0.903727
v -1.963556 3.999999 -1.312008
v -1.669867 3.999999 -1.669868
v -1.312006 3.999999 -1.963556
v -0.903725 3.999999 -2.181787
v -0.460715 3.999999 -2.316172
v 0.000001 3.999999 -2.361550
v 0.460716 3.999999 -2.316172
v 0.903726 3.999999 -2.181787
v 1.312006 3.999999 -1.963555
v 1.669867 3.999999 -1.669866
v 1.963556 3.999999 -1.312005
v 2.181786 3.999999 -0.903725
vt 0.375000 0.687500
vt 0.382812 0.687500
vt 0.390625 0.687500
vt 0.398438 0.687500
vt 0.406250 0.687500
vt 0.414062 0.687500
vt 0.421875 0.687500
vt 0.429688 0.687500
vt 0.437500 0.687500
vt 0.445312 0.687500
vt 0.453125 0.687500
vt 0.460938 0.687500
vt 0.468750 0.687500
vt 0.476562 0.687500
vt 0.484375 0.687500
vt 0.492188 0.687500
vt 0.500000 0.687500
vt 0.507812 0.687500
vt 0.515625 0.687500
vt 0.523438 0.687500
vt 0.531250 0.687500
vt 0.539062 0.687500
vt 0.546875 0.687500
vt 0.554688 0.687500
vt 0.562500 0.687500
vt 0.570312 0.687500
vt 0.578125 0.687500
vt 0.585938 0.687500
vt 0.593750 0.687500
vt 0.601562 0.687500
vt 0.609375 0.687500
vt 0.617188 0.687500
vt 0.625000 0.687500
vt 0.625000 0.462500
vt 0.375000 0.462500
vt 0.617188 0.462500
vt 0.609375 0.462500
vt 0.601562 0.462500
vt 0.593750 0.462500
vt 0.585938 0.462500
vt 0.578125 0.462500
vt 0.570312 0.462500
vt 0.562500 0.462500
vt 0.554688 0.462500
vt 0.546875 0.462500
vt 0.539062 0.462500
vt 0.531250 0.462500
vt 0.523438 0.462500
vt 0.515625 0.462500
vt 0.507812 0.462500
vt 0.500000 0.462500
vt 0.492188 0.462500
vt 0.484375 0.462500
vt 0.476562 0.462500
vt 0.468750 0.462500
vt 0.460938 0.462500
vt 0.453125 0.462500
vt 0.445313 0.462500
vt 0.437500 0.462500
vt 0.429688 0.462500
vt 0.421875 0.462500
vt 0.414062 0.462500
vt 0.406250 0.462500
vt 0.398438 0.462500
vt 0.390625 0.462500
vt 0.382812 0.462500
vt 0.625000 0.537500
vt 0.375000 0.537500
vt 0.617188 0.537500
vt 0.609375 0.537500
vt 0.601562 0.537500
vt 0.593750 0.537500
vt 0.585938 0.537500
vt 0.578125 0.537500
vt 0.570312 0.537500
vt 0.562500 0.537500
vt 0.554688 0.537500
vt 0.546875 0.537500
vt 0.539062 0.537500
vt 0.531250 0.537500
vt 0.523438 0.537500
vt 0.515625 0.537500
vt 0.507812 0.537500
vt 0.500000 0.537500
vt 0.492188 0.537500
vt 0.484375 0.537500
vt 0.476562 0.537500
vt 0.468750 0.537500
vt 0.460938 0.537500
vt 0.453125 0.537500
vt 0.445312 0.537500
vt 0.437500 0.537500
vt 0.429688 0.537500
vt 0.421875 0.537500
vt 0.414062 0.537500
vt 0.406250 0.537500
vt 0.398438 0.537500
vt 0.390625 0.537500
vt 0.382812 0.537500
vt 0.625000 0.612500
vt 0.375000 0.612500
vt 0.617188 0.612500
vt 0.609375 0.612500
vt 0.601562 0.612500
vt 0.593750 0.612500
vt 0.585938 0.612500
vt 0.578125 0.612500
vt 0.570312 0.612500
vt 0.562500 0.612500
vt 0.554688 0.612500
vt 0.546875 0.612500
vt 0.539062 0.612500
vt 0.531250 0.612500
vt 0.523438 0.612500
vt 0.515625 0.612500
vt 0.507812 0.612500
vt 0.500000 0.612500
vt 0.492188 0.612500
vt 0.484375 0.612500
vt 0.476562 0.612500
vt 0.468750 0.612500
vt 0.460938 0.612500
vt 0.453125 0.612500
vt 0.445312 0.612500
vt 0.437500 0.612500
vt 0.429688 0.612500
vt 0.421875 0.612500
vt 0.414062 0.612500
vt 0.406250 0.612500
vt 0.398438 0.612500
vt 0.390625 0.612500
vt 0.382812 0.612500
vn 0.860087 -0.510147 -0.000003
vn 0.843561 -0.510146 -0.167797
vn 0.915465 -0.358836 -0.182100
vn 0.933401 -0.358836 -0.000003
vn 0.843561 -0.510146 0.167795
vn 0.915465 -0.358836 0.182098
vn 0.794618 -0.510146 0.329141
vn 0.862350 -0.358836 0.357197
vn 0.715136 -0.510146 0.477839
vn 0.776094 -0.358836 0.518570
vn 0.608173 -0.510146 0.608174
vn 0.660014 -0.358836 0.660014
vn 0.477839 -0.510146 0.715137
vn 0.518569 -0.358836 0.776094
vn 0.329141 -0.510146 0.794617
vn 0.357197 -0.358836 0.862350
vn 0.167795 -0.510146 0.843561
vn 0.182097 -0.358836 0.915466
vn -0.000000 -0.510146 0.860088
vn -0.000000 -0.358836 0.933401
vn -0.167795 -0.510146 0.843561
vn -0.182098 -0.358836 0.915465
vn -0.329141 -0.510147 0.794617
vn -0.357197 -0.358836 0.862350
vn -0.477840 -0.510147 0.715136
vn -0.518570 -0.358836 0.776094
vn -0.608174 -0.510146 0.608173
vn -0.660015 -0.358836 0.660013
vn -0.715137 -0.510146 0.477839
vn -0.776095 -0.358836 0.518569
vn -0.794617 -0.510146 0.329141
vn -0.862350 -0.358836 0.357197
vn -0.843561 -0.510146 0.167795
vn -0.915465 -0.358836 0.182098
vn -0.860087 -0.510147 -0.000001
vn -0.933401 -0.358836 -0.000001
vn -0.843561 -0.510146 -0.167796
vn -0.915465 -0.358836 -0.182098
vn -0.794617 -0.510147 -0.329141
vn -0.862350 -0.358836 -0.357197
vn -0.715136 -0.510147 -0.477839
vn -0.776094 -0.358836 -0.518570
vn -0.608173 -0.510147 -0.608174
vn -0.660013 -0.358836 -0.660015
vn -0.477839 -0.510146 -0.715137
vn -0.518569 -0.358836 -0.776094
vn -0.329141 -0.510146 -0.794617
vn -0.357196 -0.358836 -0.862350
vn -0.167795 -0.510146 -0.843561
vn -0.182097 -0.358836 -0.915465
vn 0.000000 -0.510146 -0.860088
vn 0.000000 -0.358836 -0.933401
vn 0.167796 -0.510146 -0.843561
vn 0.182098 -0.358836 -0.915465
vn 0.329142 -0.510146 -0.794617
vn 0.357197 -0.358836 -0.862350
vn 0.477840 -0.510146 -0.715136
vn 0.518571 -0.358836 -0.776094
vn 0.608174 -0.510146 -0.608174
vn 0.660014 -0.358836 -0.660014
vn 0.715137 -0.510146 -0.477839
vn 0.776094 -0.358836 -0.518570
vn 0.794618 -0.510146 -0.329140
vn 0.862351 -0.358836 -0.357195
vn 0.901896 -0.392937 -0.179401
vn 0.919565 -0.392938 -0.000003
vn 0.901896 -0.392938 0.179399
vn 0.849567 -0.392938 0.351902
vn 0.764590 -0.392938 0.510883
vn 0.650231 -0.392938 0.650231
vn 0.510883 -0.392938 0.764590
vn 0.351902 -0.392938 0.849567
vn 0.179398 -0.392938 0.901896
vn 0.000000 -0.392938 0.919565
vn -0.179398 -0.392938 0.901896
vn -0.351903 -0.392938 0.849567
vn -0.510884 -0.392938 0.764590
vn -0.650232 -0.392938 0.650230
vn -0.764591 -0.392938 0.510882
vn -0.849567 -0.392938 0.351903
vn -0.901896 -0.392938 0.179398
vn -0.919565 -0.392938 -0.000001
vn -0.901896 -0.392938 -0.179399
vn -0.849567 -0.392938 -0.351903
vn -0.764590 -0.392938 -0.510884
vn -0.650230 -0.392938 -0.650231
vn -0.510883 -0.392938 -0.764590
vn -0.351902 -0.392938 -0.849567
vn -0.179398 -0.392938 -0.901896
vn 0.000001 -0.392938 -0.919565
vn 0.179399 -0.392938 -0.901896
vn 0.351902 -0.392938 -0.849567
vn 0.510884 -0.392938 -0.764590
vn 0.650231 -0.392938 -0.650230
vn 0.764591 -0.392938 -0.510883
vn 0.849568 -0.392938 -0.351901
vn 0.847191 -0.503854 -0.168519
vn 0.863789 -0.503854 -0.000002
vn 0.847191 -0.503854 0.168517
vn 0.798037 -0.503855 0.330558
vn 0.718214 -0.503854 0.479896
vn 0.610791 -0.503854 0.610791
vn 0.479895 -0.503854 0.718214
vn 0.330557 -0.503854 0.798037
vn 0.168517 -0.503854 0.847191
vn -0.000000 -0.503854 0.863789
vn -0.168517 -0.503854 0.847191
vn -0.330558 -0.503855 0.798037
vn -0.479896 -0.503854 0.718213
vn -0.610792 -0.503855 0.610790
vn -0.718214 -0.503854 0.479895
vn -0.798037 -0.503854 0.330558
vn -0.847191 -0.503854 0.168517
vn -0.863789 -0.503854 -0.000001
vn -0.847191 -0.503854 -0.168518
vn -0.798037 -0.503854 -0.330558
vn -0.718214 -0.503854 -0.479896
vn -0.610790 -0.503854 -0.610791
vn -0.479895 -0.503854 -0.718214
vn -0.330557 -0.503854 -0.798037
vn -0.168517 -0.503854 -0.847191
vn 0.000000 -0.503854 -0.863789
vn 0.168517 -0.503854 -0.847191
vn 0.330558 -0.503854 -0.798037
vn 0.479896 -0.503854 -0.718214
vn 0.610791 -0.503854 -0.610791
vn 0.718214 -0.503854 -0.479895
vn 0.798037 -0.503854 -0.330556
s 1
g pCylinder1
usemtl initialShadingGroup
f 34/36/1 33/34/2 65/67/3 66/69/4
f 35/37/5 34/36/1 66/69/4 67/70/6
f 36/38/7 35/37/5 67/70/6 68/71/8
f 37/39/9 36/38/7 68/71/8 69/72/10
f 38/40/11 37/39/9 69/72/10 70/73/12
f 39/41/13 38/40/11 70/73/12 71/74/14
f 40/42/15 39/41/13 71/74/14 72/75/16
f 41/43/17 40/42/15 72/75/16 73/76/18
f 42/44/19 41/43/17 73/76/18 74/77/20
f 43/45/21 42/44/19 74/77/20 75/78/22
f 44/46/23 43/45/21 75/78/22 76/79/24
f 45/47/25 44/46/23 76/79/24 77/80/26
f 46/48/27 45/47/25 77/80/26 78/81/28
f 47/49/29 46/48/27 78/81/28 79/82/30
f 48/50/31 47/49/29 79/82/30 80/83/32
f 49/51/33 48/50/31 80/83/32 81/84/34
f 50/52/35 49/51/33 81/84/34 82/85/36
f 51/53/37 50/52/35 82/85/36 83/86/38
f 52/54/39 51/53/37 83/86/38 84/87/40
f 53/55/41 52/54/39 84/87/40 85/88/42
f 54/56/43 53/55/41 85/88/42 86/89/44
f 55/57/45 54/56/43 86/89/44 87/90/46
f 56/58/47 55/57/45 87/90/46 88/91/48
f 57/59/49 56/58/47 88/91/48 89/92/50
f 58/60/51 57/59/49 89/92/50 90/93/52
f 59/61/53 58/60/51 90/93/52 91/94/54
f 60/62/55 59/61/53 91/94/54 92/95/56
f 61/63/57 60/62/55 92/95/56 93/96/58
f 62/64/59 61/63/57 93/96/58 94/97/60
f 63/65/61 62/64/59 94/97/60 95/98/62
f 64/66/63 63/65/61 95/98/62 96/99/64
f 33/35/2 64/66/63 96/99/64 65/68/3
f 66/69/4 65/67/3 97/100/65 98/102/66
f 67/70/6 66/69/4 98/102/66 99/103/67
f 68/71/8 67/70/6 99/103/67 100/104/68
f 69/72/10 68/71/8 100/104/68 101/105/69
f 70/73/12 69/72/10 101/105/69 102/106/70
f 71/74/14 70/73/12 102/106/70 103/107/71
f 72/75/16 71/74/14 103/107/71 104/108/72
f 73/76/18 72/75/16 104/108/72 105/109/73
f 74/77/20 73/76/18 105/109/73 106/110/74
f 75/78/22 74/77/20 106/110/74 107/111/75
f 76/79/24 75/78/22 107/111/75 108/112/76
f 77/80/26 76/79/24 108/112/76 109/113/77
f 78/81/28 77/80/26 109/113/77 110/114/78
f 79/82/30 78/81/28 110/114/78 111/115/79
f 80/83/32 79/82/30 111/115/79 112/116/80
f 81/84/34 80/83/32 112/116/80 113/117/81
f 82/85/36 81/84/34 113/117/81 114/118/82
f 83/86/38 82/85/36 114/118/82 115/119/83
f 84/87/40 83/86/38 115/119/83 116/120/84
f 85/88/42 84/87/40 116/120/84 117/121/85
f 86/89/44 85/88/42 117/121/85 118/122/86
f 87/90/46 86/89/44 118/122/86 119/123/87
f 88/91/48 87/90/46 119/123/87 120/124/88
f 89/92/50 88/91/48 120/124/88 121/125/89
f 90/93/52 89/92/50 121/125/89 122/126/90
f 91/94/54 90/93/52 122/126/90 123/127/91
f 92/95/56 91/94/54 123/127/91 124/128/92
f 93/96/58 92/95/56 124/128/92 125/129/93
f 94/97/60 93/96/58 125/129/93 126/130/94
f 95/98/62 94/97/60 126/130/94 127/131/95
f 96/99/64 95/98/62 127/131/95 128/132/96
f 65/68/3 96/99/64 128/132/96 97/101/65
f 98/102/66 97/100/65 1/33/97 32/32/98
f 99/103/67 98/102/66 32/32/98 31/31/99
f 100/104/68 99/103/67 31/31/99 30/30/100
f 101/105/69 100/104/68 30/30/100 29/29/101
f 102/106/70 101/105/69 29/29/101 28/28/102
f 103/107/71 102/106/70 28/28/102 27/27/103
f 104/108/72 103/107/71 27/27/103 26/26/104
f 105/109/73 104/108/72 26/26/104 25/25/105
f 106/110/74 105/109/73 25/25/105 24/24/106
f 107/111/75 106/110/74 24/24/106 23/23/107
f 108/112/76 107/111/75 23/23/107 22/22/108
f 109/113/77 108/112/76 22/22/108 21/21/109
f 110/114/78 109/113/77 21/21/109 20/20/110
f 111/115/79 110/114/78 20/20/110 19/19/111
f 112/116/80 111/115/79 19/19/111 18/18/112
f 113/117/81 112/116/80 18/18/112 17/17/113
f 114/118/82 113/117/81 17/17/113 16/16/114
f 115/119/83 114/118/82 16/16/114 15/15/115
f 116/120/84 115/119/83 15/15/115 14/14/116
f 117/121/85 116/120/84 14/14/116 13/13/117
f 118/122/86 117/121/85 13/13/117 12/12/118
f 119/123/87 118/122/86 12/12/118 11/11/119
f 120/124/88 119/123/87 11/11/119 10/10/120
f 121/125/89 120/124/88 10/10/120 9/9/121
f 122/126/90 121/125/89 9/9/121 8/8/122
f 123/127/91 122/126/90 8/8/122 7/7/123
f 124/128/92 123/127/91 7/7/123 6/6/124
f 125/129/93 124/128/92 6/6/124 5/5/125
f 126/130/94 125/129/93 5/5/125 4/4/126
f 127/131/95 126/130/94 4/4/126 3/3/127
f 128/132/96 127/131/95 3/3/127 2/2/128
f 97/101/65 128/132/96 2/2/128 1/1/97
